<svg xmlns="http://www.w3.org/2000/svg" version="1.1" xmlns:xlink="http://www.w3.org/1999/xlink" width="197" height="163"><svg version="1.1" xmlns="http://www.w3.org/2000/svg" width="197" height="163">
<path d="M0 0 C0.98608749 0.0028299 1.97217499 0.00565979 2.98814392 0.00857544 C6.10550612 0.01967745 9.22256992 0.04476305 12.33984375 0.0703125 C14.4667927 0.08035521 16.59374619 0.08947879 18.72070312 0.09765625 C23.90636315 0.11958402 29.09180304 0.15404404 34.27734375 0.1953125 C31.28432859 3.22051479 28.20917894 5.91249845 24.86328125 8.53515625 C21.5154188 12.03969206 20.94858151 16.05650366 20.83984375 20.7578125 C21.13560448 31.79305258 27.20585789 41.25672597 32.65234375 50.5703125 C50.05752191 80.83035967 50.05752191 80.83035967 46.62890625 97.3125 C43.21211453 107.62128185 35.91345474 116.83021635 26.16040039 121.77587891 C25.2089917 122.24429199 24.25758301 122.71270508 23.27734375 123.1953125 C23.91992126 123.19451691 24.56249878 123.19372131 25.22454834 123.19290161 C31.90832692 123.19046524 38.59094207 123.22960162 45.27441406 123.29296875 C47.76915075 123.31114534 50.2639883 123.31869428 52.75878906 123.31542969 C56.3438954 123.31257757 59.92690265 123.34784459 63.51171875 123.390625 C64.62851013 123.38153107 65.74530151 123.37243713 66.89593506 123.36306763 C69.81302029 123.41791152 72.43847019 123.52216475 75.27734375 124.1953125 C78.28782896 127.34605774 79.27734375 128.8469456 79.27734375 133.1953125 C58.11674672 134.50301469 36.94938033 134.31357219 15.7588501 134.26397705 C10.84379512 134.25359711 5.92873474 134.24914855 1.01367188 134.24414062 C-8.56511803 134.23353695 -18.14388442 134.21655595 -27.72265625 134.1953125 C-24.56511323 130.99804576 -21.42743091 128.09909519 -17.84765625 125.3828125 C-6.09011113 116.02903216 3.5633159 102.21359604 6.27734375 87.1953125 C7.64640522 74.49825855 7.40115059 62.6042653 1.27734375 51.1953125 C0.72691406 50.13183594 0.17648438 49.06835938 -0.390625 47.97265625 C-1.78715923 45.34876414 -3.22545248 42.76268254 -4.72265625 40.1953125 C-7.45670266 43.48743344 -9.7745094 46.78154072 -11.90234375 50.4921875 C-12.494104 51.52045654 -13.08586426 52.54872559 -13.69555664 53.6081543 C-14.32324951 54.7094165 -14.95094238 55.81067871 -15.59765625 56.9453125 C-16.26463178 58.10797842 -16.93187269 59.27049215 -17.59936523 60.43286133 C-21.47273525 67.19054123 -25.28481698 73.98076691 -29.06640625 80.7902832 C-34.2880425 90.18551991 -39.58693887 99.52860807 -45.09765625 108.7578125 C-45.64429932 109.69133545 -46.19094238 110.6248584 -46.75415039 111.58666992 C-52.40944351 120.94270898 -59.13712127 128.59885151 -69.72265625 132.1953125 C-77.8198738 133.95477615 -87.68081376 135.87592666 -95.72265625 133.1953125 C-94.06778355 128.74784212 -91.94628173 124.62657039 -89.72265625 120.4453125 C-89.32240234 119.69217773 -88.92214844 118.93904297 -88.50976562 118.16308594 C-84.63419575 110.93330978 -80.48752625 103.88165388 -76.28955078 96.8359375 C-73.42232679 92.00391901 -70.58774132 87.15270258 -67.7487793 82.30404663 C-66.65153126 80.43058603 -65.55343642 78.55762433 -64.45507812 76.68481445 C-61.13253768 71.01905124 -57.81228648 65.35200172 -54.50363159 59.67811584 C-46.90331657 46.64488727 -39.23854265 33.65564045 -31.41015625 20.7578125 C-31.04921875 20.16249725 -30.68828125 19.56718201 -30.31640625 18.9538269 C-28.1342415 15.35773021 -25.95235711 11.76214752 -23.72265625 8.1953125 C-23.17585205 7.12917725 -22.62904785 6.06304199 -22.06567383 4.96459961 C-16.8170883 -1.23887081 -7.54110057 -0.08300049 0 0 Z M-5.16015625 12.3828125 C-6.93512503 15.04152557 -6.93512503 15.04152557 -6.72265625 17.8203125 C-5.4964967 20.73244144 -4.51101037 21.72368116 -1.72265625 23.1953125 C1.12282351 23.61172417 2.60065462 23.59199233 5.08984375 22.1328125 C6.94770998 19.10155707 6.6486764 16.66108391 6.27734375 13.1953125 C5.29685437 11.13128565 5.29685437 11.13128565 3.27734375 10.1953125 C-0.7267519 9.5137643 -2.10037197 9.63685225 -5.16015625 12.3828125 Z " fill="#000000" transform="translate(105.72265625,10.8046875)"></path>
</svg><style>@media (prefers-color-scheme: light) { :root { filter: none; } }
@media (prefers-color-scheme: dark) { :root { filter: none; } }
</style></svg>