<svg version="1.1" xmlns="http://www.w3.org/2000/svg" width="162" height="23" viewBox="0 0 2000 289"><path d="M0 0 C8.00163814 6.24482091 11.14189404 16.30001196 14.75024414 25.46582031 C15.31374935 26.88134878 15.31374935 26.88134878 15.8886385 28.32547379 C17.12652994 31.43800582 18.35817653 34.55296907 19.58984375 37.66796875 C20.47099908 39.88683931 21.3525697 42.10554499 22.23452759 44.32409668 C24.10574433 49.03339416 25.97429746 53.74373575 27.84066772 58.45495605 C30.74795492 65.79362197 33.66104113 73.12997599 36.57543945 80.46582031 C37.55071364 82.92083395 38.52597915 85.37585104 39.50123596 87.83087158 C39.9832654 89.04427467 40.46529484 90.25767776 40.96193123 91.50785065 C42.42229093 95.18464094 43.88206009 98.86166517 45.34165955 102.53875732 C53.35182839 122.71661866 61.39814744 142.87985055 69.46873093 163.03361511 C70.36832963 165.280196 71.26771359 167.52686274 72.16702271 169.77355957 C75.33662977 177.69200108 78.50724609 185.61003726 81.6796875 193.52734375 C84.3196875 193.52734375 86.9596875 193.52734375 89.6796875 193.52734375 C89.67600033 192.57097015 89.67231316 191.61459656 89.66851425 190.62924194 C89.57969082 167.35170655 89.51397251 144.07419315 89.47243881 120.79652405 C89.45181923 109.53958104 89.42371005 98.28275003 89.37792969 87.02587891 C89.33804359 77.21365661 89.3122503 67.40151544 89.30333352 57.58921432 C89.29812181 52.39431465 89.28588475 47.19964703 89.25676727 42.00482178 C89.22957028 37.11288666 89.22125122 32.22127868 89.22725677 27.32927513 C89.22615846 25.53622852 89.21823014 23.74317071 89.2028656 21.95018959 C89.18287018 19.49593612 89.18778242 17.04290672 89.19866943 14.58862305 C89.18701807 13.88431845 89.1753667 13.18001385 89.16336226 12.45436668 C89.22705216 7.11776217 90.69498194 2.89384075 93.6796875 -1.47265625 C99.47636951 -6.63123367 107.31293787 -6.15211333 114.65625 -5.86328125 C120.498328 -5.43771725 124.52296609 -3.76852097 128.6171875 0.58984375 C130.31269686 3.68165493 130.805456 6.20650258 130.81390858 9.6691618 C130.81836642 10.51666648 130.82282426 11.36417116 130.82741719 12.2373578 C130.82723283 13.16866275 130.82704847 14.0999677 130.82685852 15.05949402 C130.83053521 16.04871599 130.8342119 17.03793796 130.838 18.05713636 C130.84905398 21.38729857 130.85288359 24.71742959 130.85668945 28.04760742 C130.8629528 30.42912902 130.86959948 32.81064965 130.87660217 35.19216919 C130.8958416 42.35008067 130.90643226 49.50799274 130.91532996 56.66592285 C130.919714 60.03751449 130.92508053 63.40910456 130.93031883 66.78069496 C130.94733087 77.99013919 130.96182462 89.19958244 130.96906757 100.40903759 C130.97097744 103.31769499 130.97289778 106.22635239 130.97485352 109.13500977 C130.97533726 109.85793417 130.975821 110.58085857 130.9763194 111.32568977 C130.98461812 123.03425615 131.00995243 134.7427203 131.04243419 146.45124205 C131.07551746 158.47470966 131.09351749 170.49812534 131.09671181 182.52163869 C131.09887579 189.27135355 131.10760782 196.02091936 131.13317299 202.77058983 C131.15642642 209.12107602 131.16069771 215.47129398 131.15041161 221.82181168 C131.14991548 224.15183338 131.15625845 226.48186817 131.16996765 228.81184959 C131.18764769 231.99498017 131.18059879 235.17714412 131.16743469 238.36027527 C131.17840394 239.28042661 131.18937318 240.20057796 131.20067483 241.14861268 C131.14135544 247.0975176 130.00367586 251.53919167 126.6796875 256.52734375 C117.63638352 265.32857076 104.69678029 266.83113679 92.69970703 266.84204102 C83.344019 266.68268693 74.38396249 264.72899775 67.59147644 257.85543823 C58.63651288 246.95046812 54.32158494 231.02345199 49.22265625 218.08203125 C48.31232354 215.78581892 47.40136516 213.48985455 46.48982239 211.19412231 C44.09290596 205.15352867 41.70300549 199.11018616 39.31506348 193.06604004 C35.0840198 182.35983365 30.84118725 171.65829285 26.59765625 160.95703125 C26.13694607 159.79454613 25.67623589 158.632061 25.20156479 157.43434906 C17.80056469 138.76625321 10.26930578 120.15488211 2.62422276 101.58548927 C-0.54962068 93.87227147 -3.70592504 86.15205663 -6.82739258 78.41748047 C-7.1777315 77.55639742 -7.52807043 76.69531437 -7.88902569 75.80813789 C-8.20797708 75.01445745 -8.52692846 74.22077702 -8.85554504 73.40304565 C-9.13906232 72.70138212 -9.42257959 71.99971859 -9.7146883 71.27679253 C-10.3203125 69.52734375 -10.3203125 69.52734375 -10.3203125 67.52734375 C-12.9603125 67.85734375 -15.6003125 68.18734375 -18.3203125 68.52734375 C-18.31754712 69.47340988 -18.31478174 70.41947601 -18.31193256 71.39421082 C-18.24531349 94.42140623 -18.19602551 117.44858914 -18.16487598 140.4758606 C-18.14941166 151.61170885 -18.12833037 162.74749341 -18.09399414 173.88330078 C-18.06407858 183.59004732 -18.04473434 193.29674773 -18.03804702 203.00353909 C-18.03413843 208.14250334 -18.02496162 213.28133563 -18.00312233 218.42025757 C-17.98272317 223.25962584 -17.97648566 228.09880808 -17.98098946 232.93821526 C-17.98016579 234.71190337 -17.97422062 236.48559787 -17.96269608 238.25924873 C-17.94769809 240.68705612 -17.95138518 243.11416759 -17.95954895 245.54199219 C-17.95081043 246.23851489 -17.9420719 246.93503759 -17.93306857 247.65266705 C-17.98410307 253.29474696 -19.13375534 258.99072202 -22.90625 263.3671875 C-30.27852063 267.89034917 -38.84586196 268.4028751 -47.2578125 266.83984375 C-51.23338739 265.71647029 -54.24769927 264.38048461 -57.3203125 261.52734375 C-60.31151066 255.36060371 -60.75037938 249.24502501 -60.6945343 242.50144958 C-60.70049591 241.04667878 -60.70049591 241.04667878 -60.70657796 239.56251866 C-60.71615258 236.33376336 -60.70441203 233.10545154 -60.69262695 229.87670898 C-60.69505649 227.55341428 -60.69877738 225.23012062 -60.70368958 222.90682983 C-60.71307941 216.6115158 -60.70368931 210.31635777 -60.69035745 204.02105594 C-60.68017435 198.09653244 -60.68265796 192.17202355 -60.68455996 186.24749363 C-60.68774538 174.50847534 -60.67610744 162.76951784 -60.65649414 151.03051758 C-60.63748757 139.6515925 -60.63040829 128.27273865 -60.63598633 116.89379883 C-60.64205005 104.48746429 -60.64185651 92.08116102 -60.6305005 79.67482907 C-60.62452329 73.11305602 -60.62082789 66.55130635 -60.6234684 59.98953056 C-60.62535359 53.82121866 -60.6172295 47.65299798 -60.601408 41.48470688 C-60.59716979 39.2224204 -60.59631148 36.96012466 -60.59909821 34.69783592 C-60.60232741 31.60720899 -60.59321937 28.51685333 -60.58100891 25.42625427 C-60.58478823 24.53354134 -60.58856756 23.6408284 -60.59246141 22.72106355 C-60.53615515 14.65054683 -59.58792046 7.38400817 -53.7890625 1.359375 C-39.84889571 -8.98546396 -14.33478571 -9.09800372 0 0 Z " fill="#FFFFFF" transform="translate(1399.3203125,13.47265625)" /><path d="M0 0 C1.65335861 -0.00788544 1.65335861 -0.00788544 3.34011841 -0.01593018 C6.95695483 -0.02905318 10.57334521 -0.02041727 14.19018555 -0.01025391 C16.72307926 -0.01227728 19.25597241 -0.0151909 21.78886414 -0.01895142 C27.08863426 -0.02336475 32.38824727 -0.01726738 37.68798828 -0.00292969 C43.78194471 0.01336813 49.87559948 0.00812213 55.96954852 -0.0084089 C61.86955168 -0.02376284 67.76944193 -0.0220103 73.66945457 -0.0132637 C76.16231517 -0.0112739 78.65518356 -0.01367768 81.14803505 -0.02070236 C111.1994639 -0.08679443 111.1994639 -0.08679443 124.7644043 7.13818359 C125.43914795 7.48961426 126.1138916 7.84104492 126.80908203 8.203125 C139.36255896 14.90495714 147.15627427 23.21229652 151.7878418 36.84521484 C153.2374868 41.91897234 153.6444447 46.51599087 153.66157532 51.80467224 C153.66525201 52.54227297 153.66892869 53.27987371 153.6727168 54.03982598 C153.68371297 56.50678239 153.68759061 58.97369662 153.69140625 61.44067383 C153.69767417 63.21177808 153.70432127 64.98288102 153.71131897 66.75398254 C153.73232979 72.56823822 153.74272138 78.38249405 153.75268555 84.19677734 C153.75673479 86.20270361 153.76085176 88.20862975 153.76503563 90.21455574 C153.78408398 99.64387427 153.79831346 109.07318501 153.8066476 118.50251907 C153.81640668 129.36312844 153.84269297 140.22353327 153.88314849 151.08407062 C153.91338849 159.49281494 153.92812409 167.9015009 153.93142861 176.3102985 C153.93377088 181.32533513 153.94262314 186.34015318 153.96788979 191.35513115 C153.99131261 196.08055321 153.9953471 200.805615 153.9851284 205.53108025 C153.9846363 207.25549016 153.99085939 208.97991866 154.00468445 210.70427322 C154.12411539 226.49778507 152.00442191 239.75086631 141.2019043 252.01318359 C139.8715918 253.18880859 139.8715918 253.18880859 138.5144043 254.38818359 C137.92530273 254.91927734 137.33620117 255.45037109 136.72924805 255.99755859 C132.16515058 259.85358113 127.38544249 262.65551796 122.0144043 265.20068359 C121.40999512 265.49056152 120.80558594 265.78043945 120.18286133 266.07910156 C110.42283737 270.51120235 100.715245 270.71326074 90.19018555 270.72412109 C88.71526464 270.73056043 87.24034497 270.73728961 85.76542664 270.74429321 C82.69010453 270.75620304 79.61489429 270.75998007 76.53955078 270.75878906 C72.60874793 270.75858506 68.67866141 270.78599851 64.74802876 270.82033348 C61.7084577 270.84260687 58.66905982 270.84662665 55.62941551 270.84556961 C54.18019303 270.84792061 52.73096541 270.85671592 51.28182411 270.87223434 C49.25568662 270.89192016 47.22933584 270.88352715 45.203125 270.87402344 C43.47845757 270.87829849 43.47845757 270.87829849 41.71894836 270.88265991 C37.77172853 270.27358521 35.61618558 268.86261567 32.5144043 266.38818359 C28.31966783 259.81642979 28.42239946 251.63890684 29.9831543 244.13427734 C31.27497164 240.57409026 33.29282318 238.22079644 36.4727478 236.20877075 C41.05759172 234.36602 46.16939835 234.85013206 51.03393555 234.88427734 C52.8536512 234.87014549 52.8536512 234.87014549 54.71012878 234.85572815 C58.58255933 234.82708934 62.45437646 234.82399894 66.3269043 234.82568359 C70.18863108 234.82206887 74.0499107 234.81244061 77.9115448 234.78492737 C80.31115617 234.768224 82.71091426 234.76519572 85.11054993 234.77793884 C93.11647325 234.72789153 100.33659978 234.35873999 106.3894043 228.70068359 C112.03533398 219.89967555 111.95109196 211.71225838 111.91845703 201.58398438 C111.92416588 199.98328171 111.93113212 198.38258311 111.93925476 196.78189087 C111.95714569 192.45119369 111.95602533 188.12069958 111.95031238 183.7899766 C111.94721425 180.16689446 111.95331999 176.54385097 111.95935112 172.92077434 C111.97338175 164.36902496 111.97184759 155.81737551 111.96044922 147.265625 C111.94897263 138.46096498 111.96303924 129.65660973 111.98984569 120.85198987 C112.01204174 113.27634168 112.01863119 105.70078888 112.01276928 98.12511051 C112.00940744 93.60769721 112.01176302 89.09047918 112.02902031 84.57309341 C112.0445495 80.32282337 112.04046816 76.07300276 112.02171516 71.82275009 C112.01804557 70.2692142 112.02108988 68.71564456 112.03160095 67.16213989 C112.08792475 58.14423345 112.10482857 49.14168684 106.20874691 41.75171089 C100.47363341 36.33749425 92.52825122 36.09114098 85.07885742 36.06933594 C83.87741592 36.0542675 83.87741592 36.0542675 82.65170288 36.03889465 C80.0330266 36.00827338 77.41445153 35.99108672 74.7956543 35.97412109 C72.9686192 35.95539246 71.1415926 35.9358178 69.3145752 35.91543579 C64.52743558 35.86428763 59.74026797 35.82456963 54.95300293 35.78729248 C50.05933812 35.74714382 45.165788 35.69610121 40.2722168 35.64599609 C30.68636007 35.54944204 21.10043832 35.46497208 11.5144043 35.38818359 C11.51716968 36.53708887 11.51993505 37.68599415 11.52278423 38.86971474 C11.58775989 66.14333219 11.6372269 93.41694121 11.66760029 120.69062016 C11.6713524 124.04765316 11.67523537 127.404686 11.67919922 130.76171875 C11.67998615 131.4300426 11.68077308 132.09836644 11.68158386 132.78694253 C11.69463723 143.60787982 11.71829069 154.42876929 11.74586269 165.24967821 C11.7739188 176.35320403 11.79035644 187.45671034 11.79666978 198.56027067 C11.80058431 204.79686702 11.80979899 211.03335491 11.83159447 217.26991653 C11.85193809 223.13852287 11.85824234 229.00697592 11.85372734 234.87561417 C11.85455349 237.03070407 11.86053167 239.18579903 11.87202072 241.34085846 C11.88693137 244.28167792 11.88336291 247.22191756 11.87516785 250.16275024 C11.88390637 251.01684561 11.8926449 251.87094098 11.90164822 252.75091803 C11.86425008 257.71108797 11.25349726 261.08829015 8.5144043 265.38818359 C2.90312536 270.87476745 -1.65342414 272.46830656 -9.3605957 272.70068359 C-15.26606185 272.57628096 -20.54614761 272.0777786 -25.0480957 267.95849609 C-28.34103289 264.19781215 -29.60873384 261.12823929 -29.61702347 256.21513081 C-29.62086461 255.36065934 -29.62470576 254.50618786 -29.6286633 253.62582332 C-29.62779682 252.68673647 -29.62693034 251.74764962 -29.6260376 250.78010559 C-29.62900872 249.78271651 -29.63197984 248.78532744 -29.635041 247.75771445 C-29.64374509 244.39990996 -29.6452377 241.04214106 -29.64672852 237.68432617 C-29.65135552 235.28310062 -29.65638002 232.88187581 -29.66177368 230.48065186 C-29.67491194 223.94537765 -29.68138217 217.41011086 -29.68578434 210.87482667 C-29.68854704 206.79337258 -29.69278449 202.71192086 -29.69728851 198.63046837 C-29.70948229 187.32837606 -29.71978078 176.02628564 -29.7231636 164.7241869 C-29.72338317 164.00074 -29.72360274 163.2772931 -29.72382896 162.53192357 C-29.72404723 161.80674929 -29.72426551 161.08157501 -29.7244904 160.33442575 C-29.72493387 158.86495896 -29.72538043 157.39549218 -29.72583008 155.92602539 C-29.72605151 155.19711976 -29.72627294 154.46821413 -29.72650108 153.71722045 C-29.73044737 141.91167657 -29.74789574 130.10619449 -29.7711896 118.30067448 C-29.7949164 106.17776537 -29.80736609 94.05488726 -29.80853152 81.93195456 C-29.80944764 75.12637861 -29.81518373 68.32088312 -29.83335114 61.51532936 C-29.85038359 55.11236101 -29.85199476 48.70950456 -29.84321213 42.30651855 C-29.8424409 39.95715107 -29.84679576 37.60777543 -29.85667038 35.25842857 C-29.86936748 32.04916351 -29.86352479 28.84044113 -29.85308838 25.63117981 C-29.86114478 24.70324657 -29.86920119 23.77531333 -29.87750173 22.8192609 C-29.82697231 16.16739104 -29.02057445 10.23043249 -24.4230957 5.07568359 C-16.69051514 0.63356285 -8.7568686 -0.05218836 0 0 Z " fill="#FFFFFF" transform="translate(742.485595703125,8.61181640625)" /><path d="M0 0 C1.96820961 -0.00639748 1.96820961 -0.00639748 3.97618103 -0.01292419 C5.43389896 -0.01257466 6.89161686 -0.01211312 8.34933472 -0.0115509 C9.88195376 -0.0145426 11.41457204 -0.01794515 12.94718933 -0.02172852 C17.11484246 -0.03057485 21.28247506 -0.03290699 25.45013666 -0.0335443 C28.05550379 -0.03425481 30.6608657 -0.03638922 33.26623154 -0.03904152 C42.36050498 -0.04829926 51.45476375 -0.05237615 60.54904175 -0.05158997 C69.01668296 -0.05099007 77.48426029 -0.0615234 85.95188534 -0.07733363 C93.22676394 -0.09043109 100.50162173 -0.09577289 107.77651203 -0.09513456 C112.11897645 -0.09488008 116.46138418 -0.097703 120.80383682 -0.10831261 C124.89304529 -0.11802992 128.98214334 -0.11804796 133.07135582 -0.11079597 C134.56725794 -0.10975441 136.06316706 -0.11208741 137.55905724 -0.11815643 C157.92118672 -0.19537485 157.92118672 -0.19537485 165.73947144 6.13371277 C169.24475562 10.12248442 169.90842485 13.5312079 169.98947144 18.75871277 C170.02814331 20.23211121 170.02814331 20.23211121 170.06759644 21.73527527 C169.32362649 29.44067824 166.15448085 35.6744241 161.85665894 41.98918152 C161.37435822 42.71599625 160.8920575 43.44281097 160.3951416 44.19165039 C158.81094047 46.57455961 157.21270147 48.94769535 155.61447144 51.32121277 C154.48773057 53.0112419 153.36209957 54.70201144 152.23751831 56.39347839 C149.90228266 59.90400787 147.56232242 63.41131582 145.21896362 66.91642761 C140.36693512 74.18168151 135.57337991 81.48520375 130.77926636 88.78874207 C128.18802585 92.73497086 125.5924305 96.67833335 122.99728394 100.62199402 C121.95592672 102.2048285 120.91458558 103.78767356 119.8732605 105.37052917 C117.24920226 109.35901991 114.62495448 113.3473859 112.00064087 117.33570862 C100.47289328 134.85511768 88.94819573 152.37651595 77.43380737 169.90470886 C72.31345908 177.69874093 67.18900299 185.49004649 62.05978394 193.27824402 C60.93151836 194.99177886 59.80326309 196.70532048 58.67501831 198.41886902 C56.53390596 201.6707088 54.39184548 204.92192111 52.24923706 208.17277527 C51.25896378 209.6766559 50.26872764 211.18056099 49.27853394 212.68449402 C48.85121979 213.33223282 48.42390564 213.97997162 47.98364258 214.64733887 C43.51351833 221.44033823 39.13014963 228.28922924 34.73947144 235.13371277 C35.38423274 235.1300256 36.02899405 235.12633842 36.69329357 235.12253952 C52.38399239 235.03419027 68.07460465 234.96800417 83.76549053 234.92646408 C91.35350669 234.90584148 98.94135679 234.87772686 106.52926636 234.83195496 C113.14313757 234.79207769 119.75688852 234.76627775 126.37087661 234.75735879 C129.87278082 234.75214546 133.37434097 234.73989917 136.87613487 234.71079254 C140.78596811 234.67855812 144.69546517 234.67775394 148.60543823 234.67961121 C149.76565491 234.6652301 150.92587158 234.650849 152.12124634 234.6360321 C159.97870057 234.6765224 159.97870057 234.6765224 163.91972351 237.04490662 C168.45997426 242.25645464 169.08119417 248.16745843 168.95040894 254.98136902 C168.5652174 258.91174929 167.77460595 262.72902233 165.73947144 266.13371277 C161.35514992 269.60515621 158.46733022 270.63393332 152.90385437 270.63491821 C152.24087001 270.64045261 151.57788565 270.64598701 150.89481086 270.65168911 C148.68614879 270.66523887 146.47862806 270.65035853 144.26998901 270.63542175 C142.68105593 270.63920721 141.09212614 270.64470912 139.50320435 270.65179443 C135.19496657 270.66574254 130.88712851 270.65458135 126.57891297 270.63808322 C122.06103359 270.62420775 117.54317683 270.6306961 113.02528381 270.63421631 C105.43344711 270.63691784 97.84176854 270.62345247 90.24996948 270.6002655 C81.49312162 270.57370402 72.73653892 270.57189365 63.97966462 270.58365387 C55.53812787 270.5944667 47.09668632 270.58821405 38.65515709 270.57409859 C35.07209693 270.56836428 31.48910703 270.56840137 27.90604591 270.57316399 C23.67636048 270.5779671 19.44696191 270.56769532 15.21733093 270.54620934 C13.67228856 270.54068462 12.12721838 270.54013605 10.5821743 270.5451622 C-10.86822132 270.60614469 -10.86822132 270.60614469 -17.88552856 264.25871277 C-21.54215283 259.28105373 -21.59199145 253.10695019 -21.26052856 247.13371277 C-20.37305797 241.51891659 -18.39225478 237.06488532 -15.26052856 232.32121277 C-14.83102905 231.65218933 -14.40152954 230.98316589 -13.95901489 230.29386902 C-12.40924915 227.89600834 -10.83768955 225.51364465 -9.26052856 223.13371277 C-8.63581665 222.19092468 -8.01110474 221.2481366 -7.36746216 220.27677917 C-4.4552592 215.8913359 -1.53600017 211.51069371 1.39254761 207.13615417 C7.15983076 198.52026266 12.87135218 189.86945766 18.55197144 181.19621277 C26.92774105 168.41211218 35.32668011 155.64348272 43.73947144 142.88371277 C44.35011444 141.95748108 44.96075745 141.03124939 45.58990479 140.07695007 C48.71866364 135.33125455 51.84764455 130.58570551 54.97677612 125.84025574 C60.5217717 117.43091385 66.06527697 109.02058972 71.60861206 100.6101532 C73.24849078 98.12217536 74.88849838 95.63428253 76.52853394 93.14640808 C89.27224095 73.81327562 102.00491277 54.47287171 114.73947144 35.13371277 C114.11109312 35.13832173 113.48271481 35.1429307 112.83529472 35.14767933 C97.53649398 35.25816215 82.23781584 35.34087083 66.9387188 35.39277363 C59.5401259 35.41854148 52.14179951 35.45366434 44.74337769 35.51091003 C38.29393525 35.5607891 31.84468585 35.59301412 25.39505589 35.60415524 C21.98077757 35.61066659 18.56705141 35.62593894 15.15295029 35.66236305 C11.33884577 35.6986147 7.52588824 35.70365939 3.7116394 35.70133972 C2.58307022 35.7193161 1.45450104 35.73729248 0.29173279 35.7558136 C-8.25219464 35.69951971 -8.25219464 35.69951971 -11.92407227 32.77792358 C-16.1694486 27.97335265 -16.5524578 23.38722591 -16.57302856 17.13371277 C-16.58978638 15.95808777 -16.60654419 14.78246277 -16.62380981 13.57121277 C-16.13229507 8.92032055 -14.75168147 5.48507009 -11.26052856 2.32121277 C-7.45684542 0.0627759 -4.33438026 0.00635322 0 0 Z " fill="#FFFFFF" transform="translate(278.2605285644531,8.866287231445313)" /><path d="M0 0 C11.44906138 11.33011009 14.66578397 34.46210152 19.56719971 49.50698853 C20.73624739 53.09273655 21.90937788 56.67714864 23.08203125 60.26171875 C25.42553172 67.42751059 27.76469421 74.59471166 30.10241699 81.76239014 C31.92480183 87.34991174 33.74956916 92.93665515 35.57421875 98.5234375 C37.47510094 104.34421612 39.37556795 110.16512908 41.27441406 115.98657227 C46.14853236 130.92664003 51.04572654 145.85907984 55.94852448 160.78975296 C57.53296739 165.61530037 59.11599456 170.4413105 60.69824219 175.26757812 C61.36043946 177.28727413 62.02265128 179.30696536 62.68487549 181.32665253 C63.12060496 182.65556957 63.55631468 183.98449308 63.99200439 185.31342316 C66.56661462 193.16557792 69.14944808 201.01494201 71.74557495 208.86001587 C73.07387791 212.87681549 74.39675638 216.89538741 75.71844482 220.91436768 C76.31706851 222.72998283 76.91827243 224.54474964 77.52227783 226.35858154 C78.34052374 228.81634226 79.14980157 231.27688447 79.95703125 233.73828125 C80.19136871 234.43418365 80.42570618 235.13008606 80.66714478 235.84707642 C82.83030468 242.50344803 84.52492709 249.16699922 81.63671875 255.7890625 C77.50878067 261.98096963 70.04860498 264.63937959 63.0859375 266.265625 C57.2294094 267.15297774 53.13044882 266.76636436 48.06640625 263.61328125 C42.42746156 257.44978357 40.19106262 249.6315661 37.68359375 241.796875 C37.16661423 240.20825401 37.16661423 240.20825401 36.63919067 238.58753967 C35.50498043 235.09796683 34.37952493 231.6056339 33.25390625 228.11328125 C32.45248955 225.6430128 31.65039437 223.17296436 30.84765625 220.703125 C29.39080027 216.21914976 27.93557949 211.7346577 26.48312759 207.24925423 C22.84432722 196.01308656 19.16831874 184.78916662 15.48980713 173.56594849 C13.61780769 167.85311552 11.74850328 162.13940079 9.87890625 156.42578125 C9.12891894 154.13411043 8.37891895 151.84244376 7.62890625 149.55078125 C-11.49609375 91.11328125 -11.49609375 91.11328125 -30.62109375 32.67578125 C-32.51980817 35.52385288 -33.41153208 37.70957981 -34.46191406 40.93359375 C-34.81755432 42.0175795 -35.17319458 43.10156525 -35.53961182 44.21839905 C-35.9222821 45.40058517 -36.30495239 46.5827713 -36.69921875 47.80078125 C-37.10203064 49.03287827 -37.50484253 50.26497528 -37.91986084 51.53440857 C-39.0143713 54.88256651 -40.10321454 58.23254249 -41.190979 61.58289719 C-42.33243912 65.09545695 -43.47898837 68.60635481 -44.625 72.11743164 C-46.45790549 77.73508472 -48.2878348 83.35369807 -50.11523438 88.97314453 C-52.19011911 95.3535894 -54.27092636 101.73207936 -56.35546875 108.109375 C-62.01613836 125.43759143 -67.62702731 142.78169732 -73.21721554 160.13276768 C-73.42775853 160.78625659 -73.63830153 161.4397455 -73.85522461 162.11303711 C-74.06719514 162.77095969 -74.27916567 163.42888227 -74.49755955 164.10674191 C-75.9948485 168.75341755 -77.49404572 173.39947436 -78.99438477 178.04516602 C-79.20543193 178.69870214 -79.41647909 179.35223825 -79.63392162 180.0255785 C-80.48573715 182.66327347 -81.33757528 185.3009611 -82.18965721 187.93857002 C-84.90755656 196.35229989 -87.61378747 204.76964449 -90.30836487 213.19087219 C-91.85237663 218.0093689 -93.40525872 222.82497486 -94.96029663 227.6399231 C-95.68493608 229.89035455 -96.40574435 232.14202372 -97.12246704 234.39498901 C-98.11066414 237.49973601 -99.11231566 240.59983549 -100.1171875 243.69921875 C-100.39970367 244.59841537 -100.68221985 245.497612 -100.97329712 246.42405701 C-103.37890408 253.76432892 -106.62831357 261.70261069 -113.62109375 265.67578125 C-121.78368369 268.29947087 -130.26493417 265.32845231 -137.6796875 261.65625 C-140.65206442 259.79573477 -142.9859335 257.77397962 -144.62109375 254.67578125 C-145.72330532 248.83223651 -145.54276605 245.02058286 -143.7109375 239.26171875 C-143.48639389 238.54398285 -143.26185028 237.82624695 -143.03050232 237.08676147 C-142.24715667 234.60960314 -141.43636626 232.14260948 -140.62109375 229.67578125 C-140.31907043 228.75204712 -140.01704712 227.82831299 -139.70587158 226.87658691 C-137.23780568 219.3380461 -134.71427013 211.81849043 -132.18359375 204.30078125 C-126.73141329 188.0846027 -121.35941387 171.84547112 -116.07421875 155.57421875 C-108.41827965 132.0055348 -100.65905719 108.47135112 -92.88684082 84.9407959 C-91.80087029 81.65239401 -90.71540316 78.36382641 -89.63012695 75.07519531 C-89.27104185 73.98709061 -88.91195675 72.8989859 -88.54199028 71.77790833 C-87.82314418 69.59960107 -87.10431897 67.42128692 -86.38551521 65.2429657 C-84.65313048 59.99399371 -82.91918808 54.74554636 -81.18161011 49.49829102 C-80.52648776 47.51970124 -79.87138676 45.5411044 -79.21630859 43.5625 C-78.90304564 42.61639359 -78.58978268 41.67028717 -78.2670269 40.69551086 C-76.63441639 35.75916772 -75.01324319 30.81945005 -73.41277981 25.87258911 C-72.77659645 23.90701179 -72.13701708 21.94257667 -71.49617004 19.97851562 C-70.77260094 17.75698433 -70.05577126 15.53323829 -69.34794617 13.30664062 C-66.92273775 5.89734621 -64.34300323 0.14363725 -57.62109375 -4.32421875 C-41.41579183 -10.67366453 -13.80095598 -11.273552 0 0 Z " fill="#FFFFFF" transform="translate(601.62109375,15.32421875)" /><path d="M0 0 C3.64434515 3.60648182 5.39023681 7.84793809 7.1171875 12.59375 C7.37431015 13.29089111 7.6314328 13.98803223 7.89634705 14.70629883 C10.96110072 23.12099357 13.71506247 31.63911492 16.46722412 40.15997314 C17.83752521 44.40205994 19.21615775 48.64142734 20.59417725 52.88101196 C21.34118495 55.17936913 22.08779983 57.47785401 22.83404541 59.77645874 C27.00003314 72.60389468 31.20807696 85.41746988 35.41708374 98.23083496 C37.65812299 105.05324843 39.89739517 111.876242 42.13671875 118.69921875 C42.4682536 119.70931755 42.4682536 119.70931755 42.80648613 120.73982239 C48.15220995 137.02721686 53.48989391 153.31725024 58.8137207 169.61181641 C62.20195408 179.98040914 65.596857 190.34662774 69.0184021 200.70428467 C70.61393417 205.53588092 72.2051785 210.36888415 73.79602051 215.20202637 C74.55179215 217.49414974 75.30964233 219.78558894 76.06970215 222.07629395 C77.11686251 225.23273946 78.15684036 228.39146859 79.1953125 231.55078125 C79.50479324 232.47727478 79.81427399 233.40376831 80.13313293 234.3583374 C82.52578906 241.67610841 84.45949274 248.06742869 81.63671875 255.53125 C78.2647488 261.28035404 71.99028812 263.69918271 65.87890625 265.61328125 C60.86099291 266.78529737 56.34979096 267.23889148 51.37890625 265.67578125 C42.50894051 260.15297239 40.20576889 249.68910649 37.17578125 240.2734375 C36.78131302 239.06491119 36.38684479 237.85638489 35.98042297 236.61123657 C34.911988 233.33766353 33.85116699 230.06166949 32.79170609 226.78518295 C31.67108802 223.32441712 30.54310013 219.86605515 29.41577148 216.4074707 C27.5879642 210.79719644 25.76387369 205.18572869 23.94287109 199.57324219 C20.76928016 189.79270176 17.57672263 180.01837808 14.38265991 170.24450684 C13.43188459 167.33413497 12.48204886 164.42345798 11.5324707 161.51269531 C5.75703792 143.81196683 -0.05047864 126.1218042 -5.8588028 108.43185043 C-14.1463581 83.19071545 -22.39955449 57.938504 -30.62109375 32.67578125 C-32.61411417 35.66531188 -33.53558069 38.08554391 -34.64550781 41.484375 C-35.23898514 43.29039688 -35.23898514 43.29039688 -35.8444519 45.13290405 C-36.27530141 46.45966596 -36.70605418 47.7864593 -37.13671875 49.11328125 C-37.58832189 50.4933435 -38.0403259 51.87327462 -38.4927063 53.25308228 C-39.70571285 56.95674992 -40.91305496 60.66224148 -42.1193161 64.36811066 C-43.37657933 68.22742915 -44.6390259 72.0850514 -45.90087891 75.94287109 C-48.60093542 84.20093575 -51.29369812 92.46136656 -53.98466492 100.72239685 C-54.91265546 103.57066857 -55.84155318 106.41864415 -56.77050781 109.26660156 C-59.33698329 117.13542405 -61.90061059 125.00515927 -64.45809937 132.87690735 C-67.11735049 141.06174452 -69.78647342 149.24327325 -72.46484375 157.421875 C-73.80880098 161.52727594 -75.15248734 165.63276548 -76.49609375 169.73828125 C-76.82652679 170.74759705 -77.15695984 171.75691284 -77.49740601 172.79681396 C-81.3803795 184.66330617 -85.22755543 196.54034525 -89.015625 208.4375 C-89.37696533 209.57151749 -89.73830566 210.70553497 -90.1105957 211.87391663 C-91.84816676 217.32959897 -93.58097215 222.78672483 -95.30615234 228.24633789 C-105.85864943 261.5326298 -105.85864943 261.5326298 -114.37109375 266.17578125 C-123.46930963 267.57550677 -131.62526314 265.03928763 -139.62109375 260.67578125 C-143.1951999 257.98379492 -144.47966738 255.39083523 -145.35766602 250.95166016 C-145.80247693 246.6984934 -144.98430221 243.09903137 -143.6484375 239.07421875 C-143.42204086 238.35092377 -143.19564423 237.62762878 -142.96238708 236.88241577 C-142.20096297 234.47363214 -141.41351517 232.07453552 -140.62109375 229.67578125 C-140.20866425 228.41199646 -140.20866425 228.41199646 -139.78790283 227.12268066 C-137.62517419 220.50229636 -135.40846731 213.90049219 -133.18359375 207.30078125 C-128.06781352 192.10542059 -123.0478697 176.88150258 -118.09375 161.6328125 C-110.63779437 138.68510212 -103.09007588 115.76810282 -95.52526855 92.8560791 C-94.49281005 89.72833357 -93.46090047 86.6004075 -92.42919922 83.47241211 C-92.08852795 82.43954889 -91.74785667 81.40668568 -91.39686203 80.34252357 C-90.71184064 78.26564034 -90.02682526 76.18875512 -89.34181595 74.1118679 C-87.66877624 69.04056111 -85.99404129 63.96982512 -84.31561279 58.90029907 C-83.99284992 57.92539206 -83.67008705 56.95048504 -83.33754349 55.94603539 C-82.69643206 54.00955933 -82.05527609 52.07309802 -81.41407394 50.13665199 C-79.58062255 44.5941733 -77.76072333 39.04749907 -75.95400047 33.49625111 C-74.85699664 30.1288765 -73.75323856 26.76373888 -72.64831924 23.39895439 C-72.14283473 21.85369883 -71.64054405 20.30739414 -71.14175034 18.7599659 C-70.46229673 16.65284708 -69.77176058 14.54966822 -69.07861328 12.44702148 C-68.50749313 10.69070656 -68.50749313 10.69070656 -67.92483521 8.89891052 C-65.64766372 3.26925287 -62.69641082 -0.95080441 -57.62109375 -4.32421875 C-41.41579183 -10.67366453 -13.80095598 -11.273552 0 0 Z " fill="#FFFFFF" transform="translate(166.62109375,15.32421875)" /><path d="M0 0 C7.67052854 3.39476684 14.41420683 9.25583814 17.61328125 17.19140625 C17.94921875 19.33984375 17.94921875 19.33984375 17.98828125 21.56640625 C18.01664063 22.29601562 18.045 23.025625 18.07421875 23.77734375 C16.95520967 29.63791673 11.95115756 34.30095612 8.11328125 38.69140625 C7.04027571 39.93091265 5.9673616 41.17049821 4.89453125 42.41015625 C4.34925781 43.03792969 3.80398438 43.66570313 3.2421875 44.3125 C0.6860899 47.26090035 -1.84972724 50.226569 -4.38671875 53.19140625 C-5.38661139 54.35816493 -6.38661165 55.52483139 -7.38671875 56.69140625 C-8.12921875 57.55765625 -8.12921875 57.55765625 -8.88671875 58.44140625 C-25.38671875 77.69140625 -25.38671875 77.69140625 -26.88696289 79.44165039 C-27.88620271 80.60745729 -28.88538898 81.77331011 -29.88452148 82.93920898 C-32.39571336 85.86941023 -34.90785268 88.79878916 -37.421875 91.7265625 C-42.71745912 97.89564503 -47.99460717 104.07923645 -53.23803711 110.29272461 C-56.64000998 114.32023532 -60.07282383 118.32041144 -63.51171875 122.31640625 C-67.00491357 126.37765435 -70.45120426 130.46659404 -73.82421875 134.62890625 C-78.97858667 140.97417506 -84.3603464 147.11650073 -89.72705078 153.28173828 C-96.65709745 161.25567548 -103.5285635 169.26770851 -110.15625 177.49609375 C-112.38671875 180.19140625 -112.38671875 180.19140625 -114.10900879 181.61547852 C-118.09345226 185.23230732 -119.77846474 188.267702 -120.15041351 193.70652771 C-120.25680304 197.45746672 -120.21327907 201.19793641 -120.1484375 204.94921875 C-120.14766415 206.58251163 -120.15055823 208.21580997 -120.15693665 209.84909058 C-120.16649369 214.1313964 -120.13798675 218.41248252 -120.09777832 222.69458008 C-120.03614176 229.55380265 -120.01658251 236.41271772 -120.02759743 243.27218246 C-120.02350455 245.66010003 -119.99324778 248.04668164 -119.96061707 250.43435669 C-119.9567348 251.90431496 -119.95378138 253.37427608 -119.9519043 254.84423828 C-119.93967331 256.12138702 -119.92744232 257.39853577 -119.9148407 258.71438599 C-120.57948068 263.61176712 -122.74333082 266.6914887 -126.35546875 269.98828125 C-133.49460065 274.21684399 -142.50778945 273.5690803 -150.38671875 272.19140625 C-155.14253017 270.49290217 -157.56858393 268.3664208 -160.38671875 264.19140625 C-161.30832873 261.42657632 -161.51418284 259.78790167 -161.52093983 256.9374733 C-161.52539767 256.06496815 -161.52985551 255.192463 -161.53444844 254.2935183 C-161.53426408 253.33429459 -161.53407972 252.37507088 -161.53388977 251.38677979 C-161.53756646 250.36826738 -161.54124315 249.34975498 -161.54503125 248.30037856 C-161.55608649 244.87114577 -161.55991504 241.44194327 -161.5637207 238.01269531 C-161.56998391 235.56058658 -161.57663058 233.1084788 -161.58363342 230.65637207 C-161.60287311 223.28637339 -161.6134631 215.91638275 -161.62236121 208.54636633 C-161.62674481 205.07552414 -161.63211142 201.60468346 -161.63735008 198.13384247 C-161.65436142 186.59584495 -161.66885575 175.05784838 -161.67609882 163.51984024 C-161.67800871 160.52592213 -161.67992904 157.53200402 -161.68188477 154.53808594 C-161.68236851 153.79396492 -161.68285225 153.04984391 -161.68335065 152.28317377 C-161.69165157 140.2279741 -161.71698993 128.17287364 -161.74946544 116.1177173 C-161.78253654 103.7405607 -161.80054761 91.36345452 -161.80374306 78.9862535 C-161.80590807 72.03704027 -161.81465519 65.08797174 -161.84020424 58.13880157 C-161.86418165 51.60202717 -161.8677366 45.06546641 -161.85744286 38.52864075 C-161.85694628 36.1288593 -161.86330235 33.72906523 -161.8769989 31.32932281 C-161.89464814 28.05389025 -161.8876452 24.77939995 -161.87446594 21.50396729 C-161.88543519 20.55366646 -161.89640443 19.60336564 -161.90770608 18.62426782 C-161.84941904 12.62678727 -160.91772255 9.08854034 -157.38671875 4.19140625 C-150.96034378 -1.23338163 -142.25437663 -0.62000829 -134.28759766 -0.03613281 C-129.01607133 0.59487959 -125.74395093 2.65444305 -122.22161865 6.64321899 C-119.65976229 11.59713833 -119.81432256 15.83589683 -119.84082031 21.33740234 C-119.83048264 22.45018555 -119.82014496 23.56296875 -119.80949402 24.70947266 C-119.78005758 28.37807725 -119.7785666 32.04613032 -119.77734375 35.71484375 C-119.76236277 38.26218722 -119.7456358 40.80952098 -119.72723389 43.35684204 C-119.68800244 49.37030461 -119.66634694 55.38358075 -119.65325999 61.39713633 C-119.63737021 68.24609332 -119.59894639 75.09486656 -119.55866671 81.94371676 C-119.47634715 96.02621799 -119.42220553 110.10871469 -119.38671875 124.19140625 C-117.50103721 121.99371636 -115.61566748 119.79576024 -113.73046875 117.59765625 C-113.20420898 116.98438477 -112.67794922 116.37111328 -112.13574219 115.73925781 C-108.70341593 111.73663734 -105.28859406 107.71994281 -101.88671875 103.69140625 C-97.5706763 98.58092337 -93.22505725 93.49672075 -88.8671875 88.421875 C-85.52379577 84.52557094 -82.19879393 80.61435408 -78.88671875 76.69140625 C-74.57146675 71.58025763 -70.22505217 66.49671483 -65.8671875 61.421875 C-62.52379577 57.52557094 -59.19879393 53.61435408 -55.88671875 49.69140625 C-51.57146675 44.58025763 -47.22505217 39.49671483 -42.8671875 34.421875 C-39.97934467 31.0564561 -37.10222789 27.68248618 -34.2409668 24.29443359 C-33.34269923 23.23115167 -32.44313439 22.16896424 -31.54223633 21.10791016 C-29.08596511 18.21385695 -26.6527754 15.30334851 -24.2421875 12.37109375 C-23.18631893 11.10276383 -22.13033209 9.83453236 -21.07421875 8.56640625 C-20.5946875 7.97408203 -20.11515625 7.38175781 -19.62109375 6.77148438 C-14.32907271 0.46063934 -8.29146013 -2.80905442 0 0 Z " fill="#FFFFFF" transform="translate(1740.38671875,7.80859375)" /><path d="M0 0 C6.83168879 6.36589183 10.76371062 15.14831001 14.92660522 23.37640381 C16.56221498 26.60762384 18.21675187 29.82912186 19.87109375 33.05078125 C20.2015419 33.69494995 20.53199005 34.33911865 20.87245178 35.00280762 C23.80237855 40.69850512 26.84572128 46.32804162 29.9375 51.9375 C33.97269727 59.26400182 37.9019312 66.63596437 41.75 74.0625 C47.16515744 84.50944091 52.7726474 94.84312851 58.43408203 105.15820312 C61.23567897 110.27696503 63.9939242 115.4191191 66.75 120.5625 C73.85634825 107.78275368 80.69935475 94.88345927 87.375 81.875 C87.74455811 81.15497803 88.11411621 80.43495605 88.49487305 79.69311523 C89.94887858 76.85982345 91.40271298 74.02644397 92.85617065 71.19287109 C96.58808268 63.92141937 100.38691441 56.68681947 104.21630859 49.46630859 C105.8042282 46.45982725 107.38275617 43.4485504 108.9599762 40.43644714 C110.56547555 37.37242946 112.17532004 34.31070501 113.78567505 31.24923706 C114.58479697 29.72793113 115.3822672 28.20575625 116.177948 26.68264771 C128.79553779 2.5397311 128.79553779 2.5397311 136.75 -1.4375 C145.43324962 -2.45611198 152.39840062 -0.21511662 159.6875 4.4375 C163.28359574 8.14256834 164.9143484 11.57089441 165.06640625 16.71484375 C164.98486295 21.97678469 163.25703732 25.82015572 160.875 30.4375 C160.46717285 31.26064697 160.0593457 32.08379395 159.63916016 32.93188477 C158.36398797 35.48685109 157.06161792 38.026077 155.75 40.5625 C155.36521484 41.31289551 154.98042969 42.06329102 154.58398438 42.83642578 C150.62750746 50.52900589 146.51791974 58.13928187 142.4140625 65.75390625 C141.19223396 68.02318215 139.97089662 70.29272258 138.75 72.5625 C138.28320328 73.43004913 138.28320328 73.43004913 137.80697632 74.31512451 C131.42153937 86.19522557 125.25066445 98.18233916 119.10058594 110.18554688 C118.34703168 111.65626357 117.5934515 113.12696697 116.83984375 114.59765625 C116.47794952 115.30395172 116.1160553 116.01024719 115.74319458 116.73794556 C112.6693971 122.73144653 109.54784182 128.69862194 106.39355469 134.65014648 C103.92773475 139.30810392 101.4932144 143.98163167 99.07421875 148.6640625 C98.59304092 149.59493683 98.59304092 149.59493683 98.10214233 150.5446167 C96.50085098 153.64306506 94.90174924 156.7426167 93.30566406 159.84375 C92.72913086 160.96007812 92.15259766 162.07640625 91.55859375 163.2265625 C91.04095459 164.23154785 90.52331543 165.2365332 89.98999023 166.27197266 C88.75 168.5625 88.75 168.5625 87.75 169.5625 C87.64065484 172.48282329 87.59576374 175.38036214 87.59228516 178.30151367 C87.58720444 179.21861115 87.58212372 180.13570862 87.57688904 181.08059692 C87.56615903 183.07987183 87.55754925 185.07915895 87.55076981 187.07845116 C87.53901481 190.24330871 87.51956938 193.40802769 87.49765015 196.5728302 C87.43593002 205.57397849 87.38202234 214.57511465 87.34863281 223.57641602 C87.32767959 229.07603588 87.29236544 234.57540682 87.24787521 240.07488441 C87.23371417 242.17158386 87.22499255 244.26832738 87.22182083 246.36507225 C87.21690873 249.30248376 87.19374086 252.2392362 87.16650391 255.17651367 C87.17101311 256.47427986 87.17101311 256.47427986 87.1756134 257.79826355 C87.10704486 262.78126409 86.54304186 266.26248373 83.75 270.5625 C75.92158701 276.59690168 67.24839324 276.44064012 57.75 275.5625 C53.36738919 274.43466729 50.62818936 272.69564757 47.8125 269.0625 C45.66575678 264.01133948 45.68391261 259.49825895 45.84619141 254.06665039 C45.8889701 252.28664946 45.93071893 250.50662356 45.97158813 248.72657776 C46.00535994 247.30865024 46.00535994 247.30865024 46.039814 245.86207771 C46.16864782 239.70310548 46.20994099 233.54281588 46.26114845 227.38279057 C46.31044106 222.01783701 46.39260725 216.65795813 46.55566406 211.29516602 C47.45189455 180.66627065 43.32931974 159.2960472 26.835886 133.31393433 C24.2472876 129.13876301 21.993071 124.77259607 19.6875 120.4375 C18.76151623 118.75648732 17.83339573 117.07664839 16.90234375 115.3984375 C12.69834116 107.70010898 8.74255825 99.87179893 4.75 92.0625 C-0.66156002 81.47842299 -6.14275379 70.95268991 -11.88989258 60.5456543 C-16.01879406 53.04716463 -19.99362183 45.47181038 -23.9375 37.875 C-24.24844604 37.2778418 -24.55939209 36.68068359 -24.87976074 36.06542969 C-25.75963873 34.37437572 -26.6357603 32.68136884 -27.51171875 30.98828125 C-28.01662842 30.01286377 -28.52153809 29.03744629 -29.04174805 28.0324707 C-31.84273177 22.30655591 -31.80687172 16.82938469 -31.25 10.5625 C-28.97384346 4.87210864 -24.99421879 3.04262745 -19.6875 0.54296875 C-13.29761096 -2.02732316 -6.40402421 -2.83254917 0 0 Z " fill="#FFFFFF" transform="translate(1812.25,5.4375)" /><path d="M0 0 C0.79470703 -0.020625 1.58941406 -0.04125 2.40820312 -0.0625 C8.16253713 -0.10057665 12.33965871 0.77420448 16.83203125 4.6796875 C21.61481608 10.59818378 21.33268244 16.01162271 21.30775452 23.2792511 C21.30860894 24.19007185 21.30946337 25.1008926 21.31034368 26.03931397 C21.31199099 29.09174038 21.30648934 32.14411185 21.30102539 35.1965332 C21.30074333 37.384435 21.30090162 39.5723369 21.3014679 41.76023865 C21.30175514 47.70191011 21.29587016 53.64356143 21.28889394 59.5852282 C21.28264829 65.79389357 21.28205564 72.00255939 21.28086853 78.21122742 C21.27793564 89.30053232 21.2707117 100.38982889 21.26122581 111.47912999 C21.25266122 121.54476133 21.2464164 131.61039119 21.24243164 141.67602539 C21.24216892 142.33782479 21.24190619 142.99962419 21.24163551 143.68147812 C21.24033045 147.00158875 21.23906901 150.3216994 21.23782361 153.64181006 C21.22736732 181.17787852 21.20977478 208.71393874 21.1875 236.25 C21.78587771 236.24631283 22.38425543 236.24262566 23.0007658 236.23882675 C37.56483292 236.15046524 52.12888418 236.08428533 66.69315624 236.04275131 C73.73637205 236.02213151 80.77940885 235.99402236 87.82250977 235.94824219 C94.61763012 235.90409497 101.41256426 235.88087179 108.20781898 235.87049103 C110.80221804 235.86309185 113.39660675 235.84864329 115.99092674 235.82707977 C119.62072246 235.79810546 123.2497462 235.79404167 126.87963867 235.79589844 C127.9556987 235.78151733 129.03175873 235.76713623 130.14042664 235.75231934 C137.43907058 235.7928031 137.43907058 235.7928031 141.31611633 238.16119385 C145.94599907 243.32898905 146.50194494 249.27516126 146.41015625 256.09375 C145.86012199 261.4203976 144.4291643 266.76240936 140.1875 270.25 C137.03122863 271.30209046 134.80419139 271.38090661 131.48970032 271.39044189 C129.70864143 271.39900711 129.70864143 271.39900711 127.89160156 271.40774536 C125.93492554 271.40942215 125.93492554 271.40942215 123.9387207 271.41113281 C122.55226001 271.41576178 121.16580059 271.42078655 119.77934265 271.42617798 C116.01050879 271.43929913 112.24169273 271.44574674 108.47283959 271.45018864 C106.11673446 271.4531207 103.76063417 271.45722584 101.40453148 271.46169281 C94.0287339 271.47536893 86.65294743 271.4850342 79.27713805 271.4888947 C70.77097187 271.49337151 62.26496668 271.51090132 53.75884944 271.5398953 C47.17952183 271.56154058 40.60023941 271.57160055 34.02087659 271.57293582 C30.09367666 271.5739821 26.16662806 271.57985171 22.23946571 271.59775543 C18.54172578 271.61428477 14.8442501 271.61636823 11.14648628 271.60761642 C9.15131833 271.60648395 7.15615897 271.62016496 5.16104126 271.6343689 C-8.98395721 271.56880293 -8.98395721 271.56880293 -14.32413769 266.93962479 C-19.95091166 260.74016 -20.10608703 254.13259999 -20.07992554 246.22973633 C-20.08445665 245.22428929 -20.08898776 244.21884226 -20.09365618 243.18292713 C-20.10631036 239.81591504 -20.10467915 236.44906448 -20.10302734 233.08203125 C-20.10901183 230.66726473 -20.11581719 228.25250012 -20.12338257 225.83773804 C-20.13921965 219.96104332 -20.14549113 214.08438644 -20.14660732 208.20767474 C-20.14755849 203.43097536 -20.1516722 198.65428919 -20.15800858 193.87759399 C-20.17561316 180.33039817 -20.18484833 166.78323399 -20.18334763 153.23602664 C-20.18326772 152.50619449 -20.1831878 151.77636234 -20.18310547 151.02441406 C-20.18302371 150.2936897 -20.18294195 149.56296534 -20.18285771 148.81009781 C-20.18204438 136.96133508 -20.20119579 125.11269934 -20.2293822 113.26397336 C-20.25810535 101.09351181 -20.27192291 88.92311223 -20.27019465 76.75261593 C-20.26953069 69.92141795 -20.27502588 63.09035322 -20.29655075 56.25918579 C-20.31665685 49.83727345 -20.31609477 43.41556999 -20.30151749 36.9936409 C-20.29942173 34.63536799 -20.30417566 32.27707768 -20.3162384 29.91883469 C-20.33162738 26.70231054 -20.32242412 23.48676606 -20.30697632 20.27026367 C-20.31726344 19.33466016 -20.32755057 18.39905664 -20.33814943 17.43510151 C-20.27897096 11.86854329 -19.53606755 8.66399474 -15.8125 4.25 C-10.88169084 -0.08313532 -6.24056581 0.0399077 0 0 Z " fill="#FFFFFF" transform="translate(1067.8125,7.75)" /><path d="M0 0 C1.10794922 -0.0309375 1.10794922 -0.0309375 2.23828125 -0.0625 C7.49496507 -0.09958419 11.09020426 0.77925188 15.75 3.25 C19.18141184 6.95231277 20.87323289 9.40777229 20.88142776 14.41770649 C20.88526891 15.29642078 20.88911005 16.17513507 20.8930676 17.08047706 C20.89220112 18.05175975 20.89133463 19.02304244 20.89044189 20.02375793 C20.89341302 21.05099415 20.89638414 22.07823037 20.8994453 23.13659495 C20.90816225 26.60124393 20.90964307 30.06585848 20.91113281 33.53051758 C20.91575886 36.0054278 20.92078323 38.48033731 20.92617798 40.95524597 C20.93932435 47.69491906 20.94578769 54.4345786 20.95018864 61.17426133 C20.95294944 65.38115137 20.9571865 69.58803911 20.96169281 73.7949276 C20.97388706 85.43840421 20.98418592 97.08187897 20.9875679 108.72536182 C20.98789725 109.8436268 20.98789725 109.8436268 20.98823325 110.98448298 C20.98856067 112.10545308 20.98856067 112.10545308 20.9888947 113.24906904 C20.98933817 114.76345813 20.98978473 116.27784723 20.99023438 117.79223633 C20.9904558 118.5434287 20.99067723 119.29462106 20.99090537 120.06857684 C20.99485368 132.24156883 21.01230798 144.41450098 21.0355939 156.58746985 C21.05929827 169.07984679 21.07176934 181.57219369 21.07293582 194.06459349 C21.07385312 201.08079803 21.07961921 208.0969246 21.09775543 215.11310768 C21.11475107 221.71139912 21.11641587 228.30956852 21.10761642 234.9078846 C21.10684338 237.33268886 21.11122375 239.75750093 21.12107468 242.18228531 C21.13371455 245.48679914 21.1279605 248.79078159 21.11749268 252.09529114 C21.12554908 253.05988166 21.13360548 254.02447219 21.14190602 255.01829273 C21.09486468 261.34680526 20.13436421 264.79550743 15.625 269.4375 C7.97800107 274.25843411 -0.58163079 273.63373704 -9.25 272.25 C-14.02770341 270.57361284 -16.42540402 268.43458664 -19.25 264.25 C-20.17065674 261.48802977 -20.37670632 259.85807849 -20.38142776 257.01168442 C-20.38526891 256.14266267 -20.38911005 255.27364091 -20.3930676 254.37828517 C-20.39176787 252.94528602 -20.39176787 252.94528602 -20.39044189 251.4833374 C-20.39489858 249.96169412 -20.39489858 249.96169412 -20.3994453 248.40931058 C-20.40814993 244.99389412 -20.40964204 241.57851263 -20.41113281 238.16308594 C-20.41575974 235.72082952 -20.42078423 233.27857382 -20.42617798 230.83631897 C-20.43931618 224.18954303 -20.44578632 217.54278084 -20.45018864 210.89599514 C-20.45295107 206.74553487 -20.45718845 202.59507692 -20.46169281 198.44461823 C-20.47388606 186.95294211 -20.48418499 175.46126786 -20.4875679 163.96958542 C-20.48778747 163.23401651 -20.48800703 162.49844761 -20.48823325 161.74058874 C-20.48845153 161.00325921 -20.48866981 160.26592967 -20.4888947 159.50625682 C-20.48933817 158.01214647 -20.48978473 156.51803613 -20.49023438 155.02392578 C-20.4904558 154.28279538 -20.49067723 153.54166498 -20.49090537 152.77807608 C-20.49485266 140.77139482 -20.51230431 128.76477427 -20.5355939 116.75811645 C-20.55931264 104.43067998 -20.57177 92.10327396 -20.57293582 79.77581429 C-20.57385233 72.8545757 -20.57959854 65.9334162 -20.59775543 59.0121994 C-20.6147746 52.50171109 -20.6164051 45.99134639 -20.60761642 39.48083305 C-20.60684455 37.09073167 -20.61120847 34.7006223 -20.62107468 32.31054115 C-20.63375141 29.04838004 -20.62794021 25.78675437 -20.61749268 22.52459717 C-20.62554908 21.57818729 -20.63360548 20.63177742 -20.64190602 19.65668845 C-20.60022178 14.093686 -19.9623121 10.14864897 -17.25 5.25 C-11.57992658 0.76119188 -7.03996642 0.04813652 0 0 Z " fill="#FFFFFF" transform="translate(1265.25,7.75)" /><path d="M0 0 C3.68695227 3.18506348 6.12817666 6.99171997 8.72265625 11.078125 C9.77616064 12.69738494 10.83088883 14.3158492 11.88671875 15.93359375 C12.42586914 16.7642334 12.96501953 17.59487305 13.52050781 18.45068359 C16.15453159 22.47074669 18.87449107 26.43062903 21.59765625 30.390625 C22.69011442 31.98306589 23.78256229 33.57551383 24.875 35.16796875 C25.41753418 35.95800293 25.96006836 36.74803711 26.51904297 37.56201172 C29.2373329 41.52257876 31.94839472 45.48808659 34.66015625 49.453125 C35.74345457 51.03648229 36.82678791 52.61981562 37.91015625 54.203125 C40.07682292 57.36979167 42.24348958 60.53645833 44.41015625 63.703125 C44.94713135 64.4878418 45.48410645 65.27255859 46.03735352 66.08105469 C47.1137132 67.65438262 48.18972598 69.22794794 49.26538086 70.80175781 C52.07751962 74.91525185 54.89670651 79.02367026 57.7265625 83.125 C58.31179688 83.97513672 58.89703125 84.82527344 59.5 85.70117188 C60.61364197 87.31860426 61.72938504 88.93459288 62.84765625 90.54882812 C68.73769404 99.11411209 72.60021771 105.15266402 71.16015625 115.953125 C69.14225796 122.19954048 64.43787641 126.27155847 58.76171875 129.18359375 C55.12870978 130.7818995 52.01125796 131.9020589 48.03515625 132.140625 C33.0326781 125.94394924 23.38323968 104.40586623 14.94335938 91.59204102 C11.78412072 86.80948291 8.56917861 82.09654885 5.17578125 77.4765625 C0.26016566 70.7824748 -4.27537787 63.84991105 -8.83984375 56.9140625 C-12.76116706 50.98612453 -16.79729064 45.18102782 -21.03540039 39.47460938 C-27.00196322 31.13708253 -30.92610001 24.39670303 -29.83984375 13.953125 C-27.81767484 7.0217147 -23.03825145 2.26144494 -16.80078125 -1.16796875 C-10.92595975 -3.80110588 -5.24768224 -3.78237344 0 0 Z " fill="#FFFFFF" transform="translate(1700.83984375,144.046875)" /><path d="M0 0 C5.47648797 3.42886304 10.77145046 9.21776006 12.99609375 15.33203125 C14.70189225 23.71006811 14.3928191 31.84125371 10.0625 39.30859375 C6.2196488 44.49090029 1.67235849 48.59663378 -4.5625 50.5 C-20.4541921 51.94013227 -20.4541921 51.94013227 -26.8203125 47.96484375 C-33.46919377 42.37441667 -38.00489702 37.03064355 -38.8984375 28.16796875 C-38.99672269 19.41075797 -38.58855227 12.83401522 -32.46875 6.24609375 C-23.88733464 -1.74892489 -11.28113114 -5.01877094 0 0 Z " fill="#FFFFFF" transform="translate(582.5625,172.5)" /><path d="M0 0 C5.47648797 3.42886304 10.77145046 9.21776006 12.99609375 15.33203125 C14.70189225 23.71006811 14.3928191 31.84125371 10.0625 39.30859375 C6.2196488 44.49090029 1.67235849 48.59663378 -4.5625 50.5 C-20.4541921 51.94013227 -20.4541921 51.94013227 -26.8203125 47.96484375 C-33.46919377 42.37441667 -38.00489702 37.03064355 -38.8984375 28.16796875 C-38.99672269 19.41075797 -38.58855227 12.83401522 -32.46875 6.24609375 C-23.88733464 -1.74892489 -11.28113114 -5.01877094 0 0 Z " fill="#FFFFFF" transform="translate(147.5625,172.5)" /></svg>