<?xml version="1.0" encoding="UTF-8"?>
<svg xmlns="http://www.w3.org/2000/svg" xmlns:xlink="http://www.w3.org/1999/xlink" width="210px" height="49px" viewBox="0 0 210 49" version="1.1">
<g id="surface1">
<path style=" stroke:none;fill-rule:nonzero;fill:rgb(0%,0%,0%);fill-opacity:1;" d="M 29.085938 5.117188 C 29.570312 5.117188 29.570312 5.117188 30.0625 5.117188 C 31.089844 5.121094 32.121094 5.125 33.148438 5.132812 C 33.84375 5.132812 34.542969 5.136719 35.242188 5.136719 C 36.949219 5.140625 38.660156 5.148438 40.367188 5.15625 C 40.03125 5.425781 39.691406 5.695312 39.339844 5.972656 C 37.679688 7.316406 36.90625 8.253906 36.53125 10.371094 C 36.246094 14.578125 39.125 18.566406 41.09375 22.109375 C 41.597656 23.019531 42.097656 23.933594 42.601562 24.847656 C 42.820312 25.246094 43.042969 25.644531 43.269531 26.054688 C 44.714844 28.828125 44.753906 32.195312 43.875 35.171875 C 42.59375 37.976562 40.578125 40.296875 37.792969 41.691406 C 45.230469 41.90625 45.230469 41.90625 52.820312 42.121094 C 53.246094 42.972656 53.671875 43.824219 54.109375 44.703125 C 53.679688 45.132812 53.679688 45.132812 52.421875 45.183594 C 51.859375 45.183594 51.296875 45.179688 50.714844 45.179688 C 50.40625 45.179688 50.09375 45.179688 49.777344 45.179688 C 48.746094 45.179688 47.714844 45.175781 46.6875 45.171875 C 45.976562 45.171875 45.261719 45.171875 44.550781 45.171875 C 42.675781 45.171875 40.796875 45.164062 38.917969 45.160156 C 37.003906 45.15625 35.089844 45.15625 33.175781 45.152344 C 29.417969 45.148438 25.660156 45.140625 21.902344 45.132812 C 23.128906 43.890625 24.347656 42.722656 25.714844 41.640625 C 29.058594 38.734375 31.628906 34.382812 32.011719 29.910156 C 32.035156 29.246094 32.046875 28.578125 32.046875 27.910156 C 32.050781 27.558594 32.050781 27.207031 32.054688 26.847656 C 31.953125 23.171875 30.601562 20.316406 28.773438 17.191406 C 27.035156 19.171875 25.851562 21.398438 24.585938 23.695312 C 22.523438 27.371094 20.460938 31.050781 18.34375 34.695312 C 17.914062 35.441406 17.488281 36.191406 17.0625 36.941406 C 15.046875 40.398438 13.007812 43.257812 9.152344 44.675781 C 6.558594 45.339844 3.945312 45.242188 1.289062 45.132812 C 1.835938 43.691406 2.453125 42.359375 3.210938 41.019531 C 3.53125 40.449219 3.53125 40.449219 3.859375 39.871094 C 4.089844 39.460938 4.324219 39.050781 4.5625 38.628906 C 4.808594 38.195312 5.054688 37.761719 5.308594 37.316406 C 7.46875 33.523438 9.683594 29.761719 11.917969 26.011719 C 13.484375 23.382812 15.035156 20.75 16.570312 18.105469 C 16.898438 17.539062 17.226562 16.972656 17.558594 16.40625 C 18.03125 15.589844 18.507812 14.769531 18.980469 13.949219 C 24.089844 5.082031 24.089844 5.082031 29.085938 5.117188 Z M 28.34375 9.027344 C 28.164062 10.101562 28.164062 10.101562 28.34375 11.175781 C 29.539062 12.179688 29.539062 12.179688 30.785156 11.875 C 31.113281 11.785156 31.441406 11.695312 31.777344 11.605469 C 32.070312 10.359375 32.070312 10.359375 32.207031 9.027344 C 31.425781 8.058594 31.425781 8.058594 30.277344 8.058594 C 29.128906 8.058594 29.128906 8.058594 28.34375 9.027344 Z M 28.34375 9.027344 "/>
<path style=" stroke:none;fill-rule:nonzero;fill:rgb(0%,0%,0%);fill-opacity:1;" d="M 149.449219 10.316406 C 150.28125 11.015625 150.28125 11.015625 150.734375 12.035156 C 150.683594 13.378906 150.683594 13.378906 150.308594 14.613281 C 148.917969 15.539062 148.480469 15.675781 146.871094 15.472656 C 146.09375 14.988281 146.09375 14.988281 145.582031 14.183594 C 145.414062 12.832031 145.355469 11.984375 146.066406 10.800781 C 147.261719 10.082031 148.082031 10.117188 149.449219 10.316406 Z M 149.449219 10.316406 "/>
<path style=" stroke:none;fill-rule:nonzero;fill:rgb(0%,0%,0%);fill-opacity:1;" d="M 51.007812 10.671875 C 51.386719 10.671875 51.765625 10.671875 52.15625 10.667969 C 52.957031 10.667969 53.761719 10.664062 54.5625 10.664062 C 55.792969 10.664062 57.027344 10.65625 58.257812 10.648438 C 59.035156 10.648438 59.8125 10.648438 60.589844 10.648438 C 61.144531 10.640625 61.144531 10.640625 61.710938 10.636719 C 64.320312 10.648438 64.320312 10.648438 65.277344 11.605469 C 65.316406 14.644531 63.664062 16.695312 62 19.128906 C 61.417969 20 60.835938 20.875 60.25 21.75 C 59.949219 22.199219 59.648438 22.648438 59.335938 23.109375 C 57.792969 25.410156 56.289062 27.738281 54.78125 30.0625 C 53.851562 31.488281 52.921875 32.914062 51.964844 34.386719 C 58.339844 34.597656 58.339844 34.597656 64.847656 34.816406 C 65.277344 37.394531 65.277344 37.394531 64.847656 38.253906 C 62.363281 38.285156 59.878906 38.308594 57.394531 38.324219 C 56.550781 38.332031 55.703125 38.339844 54.859375 38.351562 C 53.644531 38.367188 52.429688 38.375 51.214844 38.378906 C 50.839844 38.386719 50.460938 38.394531 50.070312 38.402344 C 49.71875 38.402344 49.363281 38.402344 49 38.402344 C 48.535156 38.40625 48.535156 38.40625 48.0625 38.410156 C 46.992188 38.207031 46.605469 37.820312 45.949219 36.964844 C 45.988281 34.9375 47.164062 33.375 48.230469 31.726562 C 48.515625 31.28125 48.515625 31.28125 48.804688 30.824219 C 50.480469 28.207031 52.199219 25.625 53.929688 23.042969 C 55.894531 20.117188 57.800781 17.15625 59.691406 14.183594 C 59.132812 14.191406 59.132812 14.191406 58.5625 14.199219 C 57.183594 14.210938 55.800781 14.222656 54.417969 14.230469 C 53.820312 14.234375 53.222656 14.242188 52.625 14.25 C 51.765625 14.257812 50.90625 14.265625 50.046875 14.269531 C 49.53125 14.273438 49.011719 14.277344 48.480469 14.28125 C 47.238281 14.183594 47.238281 14.183594 46.378906 13.324219 C 46.765625 10.148438 48.183594 10.675781 51.007812 10.671875 Z M 51.007812 10.671875 "/>
<path style=" stroke:none;fill-rule:nonzero;fill:rgb(0%,0%,0%);fill-opacity:1;" d="M 77.945312 10.476562 C 78.257812 10.472656 78.574219 10.464844 78.898438 10.460938 C 80.351562 10.882812 81.164062 11.691406 82.023438 12.894531 C 82.761719 14.527344 83.292969 16.210938 83.832031 17.917969 C 83.992188 18.40625 84.148438 18.894531 84.3125 19.398438 C 84.648438 20.425781 84.976562 21.457031 85.304688 22.488281 C 85.808594 24.066406 86.320312 25.640625 86.835938 27.214844 C 87.160156 28.21875 87.480469 29.21875 87.804688 30.222656 C 87.957031 30.691406 88.109375 31.164062 88.265625 31.648438 C 88.40625 32.089844 88.546875 32.53125 88.6875 32.984375 C 88.875 33.5625 88.875 33.5625 89.0625 34.152344 C 89.339844 35.304688 89.46875 36.21875 89.324219 37.394531 C 88.035156 38.253906 88.035156 38.253906 86.988281 38.335938 C 85.195312 37.503906 84.867188 35.738281 84.171875 33.957031 C 83.648438 32.496094 83.171875 31.027344 82.703125 29.550781 C 82.574219 29.148438 82.445312 28.742188 82.308594 28.328125 C 81.898438 27.050781 81.492188 25.777344 81.085938 24.5 C 80.671875 23.210938 80.261719 21.921875 79.847656 20.636719 C 79.589844 19.839844 79.335938 19.039062 79.082031 18.242188 C 78.964844 17.882812 78.851562 17.527344 78.734375 17.15625 C 78.632812 16.84375 78.53125 16.527344 78.429688 16.199219 C 78.214844 15.46875 78.214844 15.46875 77.730469 15.042969 C 77.605469 15.441406 77.605469 15.441406 77.476562 15.847656 C 76.609375 18.609375 75.738281 21.371094 74.863281 24.132812 C 74.539062 25.160156 74.214844 26.191406 73.890625 27.222656 C 73.425781 28.707031 72.957031 30.1875 72.488281 31.664062 C 72.34375 32.128906 72.199219 32.589844 72.050781 33.0625 C 71.914062 33.492188 71.777344 33.925781 71.636719 34.367188 C 71.457031 34.933594 71.457031 34.933594 71.273438 35.511719 C 70.839844 36.582031 70.300781 37.367188 69.570312 38.253906 C 67.046875 37.878906 67.046875 37.878906 66.5625 37.394531 C 66.742188 34.320312 67.496094 31.621094 68.464844 28.710938 C 68.609375 28.261719 68.757812 27.816406 68.910156 27.355469 C 69.21875 26.414062 69.53125 25.476562 69.84375 24.539062 C 70.320312 23.105469 70.789062 21.667969 71.253906 20.230469 C 71.558594 19.3125 71.863281 18.398438 72.167969 17.480469 C 72.304688 17.054688 72.441406 16.625 72.585938 16.183594 C 73.503906 13.476562 74.578125 10.417969 77.945312 10.476562 Z M 77.945312 10.476562 "/>
<path style=" stroke:none;fill-rule:nonzero;fill:rgb(0%,0%,0%);fill-opacity:1;" d="M 96.472656 10.574219 C 97.039062 10.574219 97.605469 10.570312 98.1875 10.570312 C 98.480469 10.570312 98.777344 10.574219 99.078125 10.578125 C 99.972656 10.585938 100.867188 10.578125 101.761719 10.570312 C 102.332031 10.570312 102.90625 10.570312 103.476562 10.574219 C 103.996094 10.574219 104.515625 10.578125 105.046875 10.578125 C 107.160156 10.820312 108.484375 11.519531 110.085938 12.902344 C 111.160156 14.835938 111.050781 16.636719 111.039062 18.816406 C 111.042969 19.488281 111.042969 19.488281 111.050781 20.175781 C 111.050781 21.125 111.050781 22.070312 111.046875 23.019531 C 111.039062 24.464844 111.054688 25.914062 111.070312 27.359375 C 111.070312 28.28125 111.070312 29.203125 111.066406 30.125 C 111.074219 30.558594 111.078125 30.988281 111.085938 31.433594 C 111.058594 33.355469 111.03125 34.796875 109.8125 36.34375 C 108.171875 37.824219 107.1875 38.367188 104.980469 38.339844 C 104.4375 38.335938 104.4375 38.335938 103.882812 38.328125 C 103.507812 38.324219 103.132812 38.316406 102.746094 38.308594 C 102.171875 38.300781 102.171875 38.300781 101.589844 38.296875 C 100.652344 38.285156 99.710938 38.273438 98.773438 38.253906 C 98.289062 35.78125 98.289062 35.78125 98.773438 34.816406 C 100.234375 34.6875 101.679688 34.636719 103.148438 34.609375 C 103.980469 34.578125 104.816406 34.484375 105.644531 34.386719 C 106.773438 32.6875 106.625 31.222656 106.617188 29.253906 C 106.617188 28.878906 106.617188 28.5 106.621094 28.113281 C 106.621094 27.316406 106.617188 26.519531 106.613281 25.722656 C 106.609375 24.503906 106.613281 23.285156 106.621094 22.066406 C 106.621094 21.292969 106.617188 20.519531 106.617188 19.746094 C 106.617188 19.378906 106.621094 19.015625 106.621094 18.636719 C 106.609375 16.5 106.609375 16.5 105.644531 14.613281 C 104.691406 14.394531 104.691406 14.394531 103.585938 14.394531 C 103.183594 14.378906 102.777344 14.363281 102.363281 14.347656 C 101.941406 14.339844 101.515625 14.328125 101.082031 14.320312 C 100.65625 14.304688 100.230469 14.289062 99.789062 14.273438 C 98.734375 14.238281 97.679688 14.207031 96.625 14.183594 C 96.628906 14.464844 96.632812 14.75 96.632812 15.039062 C 96.664062 17.976562 96.683594 20.910156 96.695312 23.847656 C 96.703125 24.941406 96.710938 26.039062 96.722656 27.132812 C 96.738281 28.707031 96.746094 30.28125 96.75 31.855469 C 96.757812 32.347656 96.765625 32.839844 96.773438 33.34375 C 96.773438 34.03125 96.773438 34.03125 96.773438 34.726562 C 96.773438 35.128906 96.777344 35.53125 96.78125 35.945312 C 96.625 36.964844 96.625 36.964844 96.042969 37.742188 C 95.050781 38.460938 94.382812 38.40625 93.191406 38.253906 C 92.050781 37.113281 92.21875 36.582031 92.214844 34.988281 C 92.210938 34.484375 92.207031 33.984375 92.199219 33.464844 C 92.203125 32.917969 92.203125 32.371094 92.203125 31.808594 C 92.199219 31.25 92.199219 30.691406 92.195312 30.117188 C 92.191406 28.933594 92.195312 27.75 92.195312 26.566406 C 92.199219 25.050781 92.191406 23.53125 92.179688 22.015625 C 92.171875 20.570312 92.175781 19.125 92.175781 17.679688 C 92.171875 17.132812 92.167969 16.585938 92.164062 16.027344 C 92.164062 15.519531 92.167969 15.015625 92.171875 14.496094 C 92.171875 14.050781 92.171875 13.605469 92.171875 13.148438 C 92.332031 12.035156 92.332031 12.035156 92.90625 11.246094 C 94.046875 10.445312 95.097656 10.578125 96.472656 10.574219 Z M 96.472656 10.574219 "/>
<path style=" stroke:none;fill-rule:nonzero;fill:rgb(0%,0%,0%);fill-opacity:1;" d="M 127.117188 10.746094 C 128.40625 10.609375 128.40625 10.609375 129.691406 10.746094 C 130.550781 11.605469 130.550781 11.605469 130.65625 12.589844 C 130.652344 13 130.652344 13.410156 130.648438 13.832031 C 130.648438 14.53125 130.648438 14.53125 130.648438 15.242188 C 130.644531 15.746094 130.640625 16.246094 130.636719 16.765625 C 130.636719 17.28125 130.632812 17.792969 130.632812 18.324219 C 130.628906 19.972656 130.617188 21.617188 130.605469 23.265625 C 130.601562 24.378906 130.597656 25.492188 130.59375 26.605469 C 130.585938 29.34375 130.570312 32.078125 130.550781 34.816406 C 130.914062 34.8125 131.277344 34.8125 131.648438 34.808594 C 132.988281 34.800781 134.328125 34.796875 135.664062 34.792969 C 136.246094 34.789062 136.828125 34.785156 137.40625 34.785156 C 138.238281 34.777344 139.070312 34.777344 139.90625 34.773438 C 140.65625 34.769531 140.65625 34.769531 141.425781 34.765625 C 142.578125 34.816406 142.578125 34.816406 143.007812 35.246094 C 143.058594 36.535156 143.058594 36.535156 143.007812 37.824219 C 142.253906 38.578125 141.261719 38.308594 140.257812 38.3125 C 139.933594 38.3125 139.609375 38.3125 139.277344 38.3125 C 138.78125 38.3125 138.78125 38.3125 138.273438 38.3125 C 137.574219 38.3125 136.871094 38.3125 136.167969 38.308594 C 135.09375 38.308594 134.019531 38.308594 132.945312 38.3125 C 132.261719 38.3125 131.582031 38.3125 130.902344 38.3125 C 130.578125 38.3125 130.257812 38.3125 129.925781 38.3125 C 127.644531 38.304688 127.644531 38.304688 126.6875 37.824219 C 126.242188 36.488281 126.199219 35.558594 126.195312 34.160156 C 126.191406 33.675781 126.191406 33.1875 126.1875 32.6875 C 126.1875 32.160156 126.1875 31.636719 126.183594 31.09375 C 126.183594 30.554688 126.183594 30.015625 126.179688 29.460938 C 126.179688 28.320312 126.179688 27.179688 126.179688 26.042969 C 126.179688 24.578125 126.171875 23.117188 126.164062 21.65625 C 126.160156 20.261719 126.160156 18.871094 126.160156 17.476562 C 126.15625 16.949219 126.152344 16.425781 126.148438 15.882812 C 126.152344 15.398438 126.152344 14.910156 126.152344 14.410156 C 126.152344 13.980469 126.152344 13.554688 126.152344 13.113281 C 126.257812 12.035156 126.257812 12.035156 127.117188 10.746094 Z M 127.117188 10.746094 "/>
<path style=" stroke:none;fill-rule:nonzero;fill:rgb(0%,0%,0%);fill-opacity:1;" d="M 177.578125 10.636719 C 178.648438 10.746094 178.648438 10.746094 179.507812 11.605469 C 179.613281 12.679688 179.667969 13.714844 179.6875 14.792969 C 179.695312 15.105469 179.703125 15.417969 179.710938 15.742188 C 179.738281 16.746094 179.757812 17.75 179.777344 18.75 C 179.792969 19.429688 179.8125 20.109375 179.828125 20.789062 C 179.871094 22.457031 179.90625 24.121094 179.9375 25.789062 C 182.34375 23.15625 184.613281 20.503906 186.75 17.644531 C 187.667969 16.761719 187.667969 16.761719 188.800781 16.578125 C 189.816406 16.761719 189.816406 16.761719 190.675781 17.621094 C 190.886719 18.574219 190.886719 18.574219 190.675781 19.773438 C 189.933594 20.828125 189.035156 21.710938 188.125 22.621094 C 187.609375 23.152344 187.097656 23.683594 186.585938 24.214844 C 186.332031 24.480469 186.078125 24.742188 185.816406 25.015625 C 184.460938 26.464844 183.234375 28.015625 182.003906 29.570312 C 181.226562 30.515625 181.226562 30.515625 180.492188 31.117188 C 179.621094 32.203125 179.746094 33.261719 179.695312 34.628906 C 179.597656 37.304688 179.597656 37.304688 178.648438 38.253906 C 177.578125 38.363281 177.578125 38.363281 176.503906 38.253906 C 175.355469 37.105469 175.535156 36.546875 175.53125 34.945312 C 175.53125 34.429688 175.527344 33.917969 175.523438 33.386719 C 175.527344 32.832031 175.527344 32.273438 175.53125 31.699219 C 175.53125 31.125 175.527344 30.550781 175.527344 29.976562 C 175.527344 28.769531 175.527344 27.5625 175.53125 26.359375 C 175.535156 24.8125 175.535156 23.265625 175.527344 21.71875 C 175.527344 20.53125 175.527344 19.34375 175.527344 18.15625 C 175.53125 17.308594 175.527344 16.460938 175.523438 15.613281 C 175.527344 15.097656 175.53125 14.585938 175.53125 14.054688 C 175.535156 13.601562 175.535156 13.148438 175.535156 12.683594 C 175.6875 11.179688 176.074219 10.789062 177.578125 10.636719 Z M 177.578125 10.636719 "/>
<path style=" stroke:none;fill-rule:nonzero;fill:rgb(0%,0%,0%);fill-opacity:1;" d="M 146.441406 17.621094 C 147.445312 17.605469 148.445312 17.605469 149.449219 17.621094 C 149.878906 18.050781 149.878906 18.050781 149.929688 18.855469 C 149.925781 19.378906 149.925781 19.378906 149.925781 19.917969 C 149.925781 20.3125 149.925781 20.707031 149.925781 21.117188 C 149.921875 21.546875 149.921875 21.976562 149.917969 22.417969 C 149.917969 22.859375 149.917969 23.296875 149.917969 23.746094 C 149.914062 25.152344 149.910156 26.558594 149.902344 27.964844 C 149.902344 28.917969 149.898438 29.867188 149.898438 30.816406 C 149.894531 33.152344 149.886719 35.488281 149.878906 37.824219 C 148.390625 38.039062 148.390625 38.039062 146.871094 38.253906 C 145.984375 36.921875 145.90625 36.644531 145.90625 35.136719 C 145.90625 34.769531 145.90625 34.402344 145.902344 34.023438 C 145.90625 33.628906 145.910156 33.234375 145.914062 32.828125 C 145.914062 32.417969 145.914062 32.011719 145.914062 31.59375 C 145.914062 30.734375 145.917969 29.878906 145.925781 29.019531 C 145.933594 27.699219 145.933594 26.382812 145.933594 25.066406 C 145.933594 24.230469 145.9375 23.398438 145.941406 22.5625 C 145.941406 21.96875 145.941406 21.96875 145.941406 21.363281 C 145.945312 21 145.945312 20.632812 145.949219 20.257812 C 145.953125 19.933594 145.953125 19.609375 145.953125 19.277344 C 146.011719 18.484375 146.011719 18.484375 146.441406 17.621094 Z M 146.441406 17.621094 "/>
<path style=" stroke:none;fill-rule:nonzero;fill:rgb(0%,0%,0%);fill-opacity:1;" d="M 162.894531 17.515625 C 163.257812 17.507812 163.617188 17.496094 163.992188 17.488281 C 166.203125 17.476562 167.714844 17.683594 169.632812 18.914062 C 171.402344 20.867188 171.417969 22.765625 171.421875 25.292969 C 171.425781 25.785156 171.425781 25.785156 171.425781 26.289062 C 171.429688 26.984375 171.429688 27.679688 171.429688 28.375 C 171.429688 29.4375 171.4375 30.503906 171.445312 31.566406 C 171.449219 32.242188 171.449219 32.917969 171.449219 33.59375 C 171.453125 33.910156 171.453125 34.230469 171.457031 34.558594 C 171.449219 36.171875 171.40625 36.878906 170.492188 38.253906 C 169.417969 38.390625 169.417969 38.390625 168.34375 38.253906 C 167.101562 37.007812 167.339844 35.71875 167.320312 34.050781 C 167.316406 33.71875 167.308594 33.390625 167.300781 33.046875 C 167.277344 31.988281 167.257812 30.929688 167.242188 29.871094 C 167.222656 28.8125 167.203125 27.757812 167.183594 26.699219 C 167.167969 26.039062 167.15625 25.378906 167.148438 24.71875 C 167.144531 23.050781 167.144531 23.050781 166.625 21.492188 C 164.214844 21.492188 161.808594 21.492188 159.324219 21.492188 C 158.660156 22.820312 158.808594 24.234375 158.789062 25.695312 C 158.777344 26.375 158.761719 27.054688 158.746094 27.730469 C 158.726562 28.804688 158.707031 29.878906 158.691406 30.949219 C 158.675781 31.984375 158.652344 33.015625 158.628906 34.050781 C 158.625 34.371094 158.621094 34.695312 158.617188 35.027344 C 158.5625 37.296875 158.5625 37.296875 157.605469 38.253906 C 156.535156 38.363281 156.535156 38.363281 155.460938 38.253906 C 154.363281 37.15625 154.492188 36.425781 154.472656 34.925781 C 154.472656 34.589844 154.472656 34.253906 154.472656 33.90625 C 154.46875 33.5625 154.46875 33.214844 154.464844 32.855469 C 154.464844 32.121094 154.464844 31.386719 154.464844 30.652344 C 154.46875 29.53125 154.457031 28.410156 154.445312 27.292969 C 154.445312 26.578125 154.445312 25.863281 154.445312 25.148438 C 154.441406 24.816406 154.4375 24.480469 154.433594 24.136719 C 154.449219 22.171875 154.679688 20.910156 155.890625 19.34375 C 158.066406 17.433594 160.144531 17.53125 162.894531 17.515625 Z M 162.894531 17.515625 "/>
<path style=" stroke:none;fill-rule:nonzero;fill:rgb(0%,0%,0%);fill-opacity:1;" d="M 192.820312 17.621094 C 193.671875 17.621094 194.523438 17.621094 195.398438 17.621094 C 197.097656 21.734375 198.800781 25.851562 200.550781 30.085938 C 201.644531 26.628906 201.644531 26.628906 202.734375 23.167969 C 202.875 22.738281 203.011719 22.304688 203.152344 21.859375 C 203.292969 21.417969 203.429688 20.976562 203.574219 20.523438 C 203.933594 19.5 204.335938 18.574219 204.847656 17.621094 C 205.695312 17.621094 206.546875 17.621094 207.421875 17.621094 C 208.234375 19.285156 208.355469 20.160156 207.816406 21.921875 C 207.691406 22.339844 207.570312 22.753906 207.441406 23.183594 C 207.300781 23.625 207.160156 24.070312 207.015625 24.527344 C 206.878906 24.988281 206.738281 25.449219 206.59375 25.921875 C 206.292969 26.894531 205.992188 27.867188 205.6875 28.839844 C 205.222656 30.324219 204.773438 31.8125 204.324219 33.300781 C 204.03125 34.246094 203.742188 35.191406 203.449219 36.132812 C 203.3125 36.578125 203.179688 37.023438 203.039062 37.484375 C 202.90625 37.898438 202.777344 38.3125 202.640625 38.738281 C 202.527344 39.101562 202.414062 39.464844 202.296875 39.839844 C 201.75 41.027344 201.113281 41.710938 200.121094 42.550781 C 198.859375 42.972656 197.980469 43.054688 196.660156 43.0625 C 196.285156 43.070312 195.90625 43.074219 195.519531 43.082031 C 194.539062 42.984375 194.539062 42.984375 193.679688 42.121094 C 193.84375 40.996094 193.84375 40.996094 194.109375 39.972656 C 195.386719 39.691406 196.660156 39.40625 197.976562 39.113281 C 198.699219 36.597656 197.980469 34.984375 197.023438 32.675781 C 196.878906 32.3125 196.734375 31.949219 196.585938 31.574219 C 196.125 30.414062 195.65625 29.257812 195.183594 28.101562 C 194.714844 26.941406 194.246094 25.78125 193.785156 24.617188 C 193.496094 23.894531 193.203125 23.175781 192.90625 22.457031 C 192.777344 22.128906 192.648438 21.800781 192.511719 21.464844 C 192.394531 21.179688 192.277344 20.894531 192.160156 20.597656 C 191.921875 19.601562 192.054688 19.011719 192.394531 18.050781 C 192.535156 17.910156 192.675781 17.769531 192.820312 17.621094 Z M 192.820312 17.621094 "/>
<path style=" stroke:none;fill-rule:nonzero;fill:rgb(0%,0%,0%);fill-opacity:1;" d="M 77.703125 26.945312 C 79.019531 27.078125 79.019531 27.078125 79.824219 27.5625 C 80.535156 28.746094 80.476562 29.59375 80.308594 30.949219 C 79.851562 31.78125 79.851562 31.78125 79.019531 32.238281 C 77.488281 32.183594 77.488281 32.183594 76.011719 31.808594 C 75.152344 30.515625 75.152344 30.515625 75.261719 29.203125 C 75.6875 27.527344 75.964844 27.128906 77.703125 26.945312 Z M 77.703125 26.945312 "/>
<path style=" stroke:none;fill-rule:nonzero;fill:rgb(0%,0%,0%);fill-opacity:1;" d="M 185.949219 27.507812 C 187.585938 29.023438 188.683594 30.488281 189.734375 32.453125 C 189.996094 32.925781 190.253906 33.398438 190.523438 33.890625 C 191.089844 35.214844 191.351562 35.976562 191.105469 37.394531 C 189.816406 38.253906 189.816406 38.253906 188.792969 38.328125 C 186.9375 37.496094 186.414062 35.816406 185.574219 34.035156 C 185.398438 33.683594 185.21875 33.332031 185.035156 32.96875 C 183.769531 30.367188 183.769531 30.367188 183.917969 29.144531 C 184.234375 28.367188 184.234375 28.367188 185.117188 27.832031 C 185.394531 27.726562 185.667969 27.617188 185.949219 27.507812 Z M 185.949219 27.507812 "/>
</g>
</svg>
